# xmcd CD database file generated by OrangeCD 5.2
#
# Track frame offsets:
#	150
#	18862
#	40552
#	55917
#	72025
#	98725
#	111500
#	128780
#	146110
#	169297
#	191042
#	204652
#
# Disc length: 2961 seconds
#
# Revision: 1
# Processed by: cddbd v1.5.1PL0 Copyright (c) Steve Scherf et al.
# Submitted via: OrangeCD 5.2
#
DISCID=ab0b8f0c
DTITLE=Various Artist - Stax Blues Masters  Blue Monday
DYEAR=1991
DGENRE=Blues Compilation
TTITLE0=Little Sonny - Things That I Used to Do
TTITLE1=Little Sonny - Blues With A Feeling
TTITLE2=Albert King - Driving Wheel
TTITLE3=Albert King - Bad Luck/More Bad Luck [Instrumental]
TTITLE4=Albert King - Born Under A Bad Sign
TTITLE5=Freddie Robinson - Creeper
TTITLE6=Freddie Robinson - I Wonder
TTITLE7=Freddie Robinson - After Hours
TTITLE8=Little Milton - Open The Door To Your Heart
TTITLE9=Little Milton - Blue Monday
TTITLE10=Freddie Robinson - River's Invitation 
TTITLE11=Little Sonny - It's Hard Going Up (But Twice As Hard Coming Down) 
EXTD=
EXTT0=Little Sonny
EXTT1=Little Sonny
EXTT2=Albert King
EXTT3=Albert King
EXTT4=Albert King
EXTT5=Freddy Robinson
EXTT6=Freddy Robinson
EXTT7=Freddy Robinson
EXTT8=Little Milton
EXTT9=Little Milton
EXTT10=Freddy Robinson
EXTT11=Little Sonny
PLAYORDER=
